<svg aria-hidden="true" style="position: absolute; width: 0; height: 0; overflow: hidden;" version="1.1" xmlns="http://www.w3.org/2000/svg" xmlns:xlink="http://www.w3.org/1999/xlink">
<defs>
<symbol id="icon-dots" viewBox="0 0 302 32">
<path fill="#06071b" style="fill: var(--color1, #06071b)" d="M25.705 16.941c0 7.008-5.261 12.689-11.75 12.689s-11.75-5.681-11.75-12.689c0-7.008 5.261-12.689 11.75-12.689s11.75 5.681 11.75 12.689z"></path>
<path fill="#939eac" style="fill: var(--color2, #939eac)" d="M135.368 16.941c0 7.008-5.261 12.689-11.75 12.689s-11.75-5.681-11.75-12.689c0-7.008 5.261-12.689 11.75-12.689s11.75 5.681 11.75 12.689z"></path>
<path fill="#939eac" style="fill: var(--color2, #939eac)" d="M245.038 16.941c0 7.008-5.261 12.689-11.75 12.689s-11.75-5.681-11.75-12.689c0-7.008 5.261-12.689 11.75-12.689s11.75 5.681 11.75 12.689z"></path>
<path fill="#939eac" style="fill: var(--color2, #939eac)" d="M80.538 16.941c0 7.008-5.261 12.689-11.75 12.689s-11.75-5.681-11.75-12.689c0-7.008 5.261-12.689 11.75-12.689s11.75 5.681 11.75 12.689z"></path>
<path fill="#939eac" style="fill: var(--color2, #939eac)" d="M190.205 16.941c0 7.008-5.261 12.689-11.75 12.689s-11.75-5.681-11.75-12.689c0-7.008 5.261-12.689 11.75-12.689s11.75 5.681 11.75 12.689z"></path>
<path fill="#939eac" style="fill: var(--color2, #939eac)" d="M299.868 16.941c0 7.008-5.261 12.689-11.75 12.689s-11.75-5.681-11.75-12.689c0-7.008 5.261-12.689 11.75-12.689s11.75 5.681 11.75 12.689z"></path>
</symbol>
</defs>
</svg>
