<svg aria-hidden="true" style="position: absolute; width: 0; height: 0; overflow: hidden;" version="1.1" xmlns="http://www.w3.org/2000/svg" xmlns:xlink="http://www.w3.org/1999/xlink">
<defs>
<symbol id="icon-dots" viewBox="0 0 302 32">
<path fill="#06071b" style="fill: var(--color1, #06071b)" d="M25.705 16.941c0 7.008-5.261 12.689-11.75 12.689s-11.75-5.681-11.75-12.689c0-7.008 5.261-12.689 11.75-12.689s11.75 5.681 11.75 12.689z"></path>
<path fill="#939eac" style="fill: var(--color2, #939eac)" d="M135.368 16.941c0 7.008-5.261 12.689-11.75 12.689s-11.75-5.681-11.75-12.689c0-7.008 5.261-12.689 11.75-12.689s11.75 5.681 11.75 12.689z"></path>
<path fill="#939eac" style="fill: var(--color2, #939eac)" d="M245.038 16.941c0 7.008-5.261 12.689-11.75 12.689s-11.75-5.681-11.75-12.689c0-7.008 5.261-12.689 11.75-12.689s11.75 5.681 11.75 12.689z"></path>
<path fill="#939eac" style="fill: var(--color2, #939eac)" d="M80.538 16.941c0 7.008-5.261 12.689-11.75 12.689s-11.75-5.681-11.75-12.689c0-7.008 5.261-12.689 11.75-12.689s11.75 5.681 11.75 12.689z"></path>
<path fill="#939eac" style="fill: var(--color2, #939eac)" d="M190.205 16.941c0 7.008-5.261 12.689-11.75 12.689s-11.75-5.681-11.75-12.689c0-7.008 5.261-12.689 11.75-12.689s11.75 5.681 11.75 12.689z"></path>
<path fill="#939eac" style="fill: var(--color2, #939eac)" d="M299.868 16.941c0 7.008-5.261 12.689-11.75 12.689s-11.75-5.681-11.75-12.689c0-7.008 5.261-12.689 11.75-12.689s11.75 5.681 11.75 12.689z"></path>
</symbol>
<symbol id="icon-burger" viewBox="0 0 52 32">
<path fill="none" stroke="#fff" style="stroke: var(--color1, #fff)" stroke-linejoin="miter" stroke-linecap="round" stroke-miterlimit="4" stroke-width="4" d="M2 2h48"></path>
<path fill="none" stroke="#fff" style="stroke: var(--color1, #fff)" stroke-linejoin="miter" stroke-linecap="round" stroke-miterlimit="4" stroke-width="4" d="M2 16h48"></path>
<path fill="none" stroke="#fff" style="stroke: var(--color1, #fff)" stroke-linejoin="miter" stroke-linecap="round" stroke-miterlimit="4" stroke-width="4" d="M2 30h48"></path>
</symbol>
<symbol id="icon-close" viewBox="0 0 32 32">
<path fill="#fff" style="fill: var(--color1, #fff)" d="M28.614 1.13l-12.614 12.614-12.614-12.614c-0.303-0.278-0.702-0.427-1.113-0.418s-0.803 0.176-1.094 0.467c-0.291 0.291-0.458 0.683-0.467 1.094s0.141 0.81 0.418 1.113l12.608 12.614-12.611 12.611c-0.154 0.147-0.277 0.323-0.362 0.518s-0.13 0.405-0.133 0.618 0.037 0.424 0.117 0.621c0.080 0.197 0.199 0.376 0.349 0.527s0.329 0.27 0.526 0.35 0.408 0.121 0.621 0.118c0.213-0.002 0.423-0.047 0.618-0.132s0.372-0.208 0.519-0.361l12.618-12.611 12.614 12.614c0.303 0.278 0.702 0.428 1.113 0.418s0.803-0.176 1.094-0.467c0.291-0.291 0.458-0.683 0.467-1.094s-0.141-0.81-0.418-1.113l-12.614-12.614 12.614-12.618c0.154-0.147 0.277-0.323 0.362-0.518s0.13-0.405 0.133-0.618c0.003-0.213-0.037-0.424-0.117-0.621s-0.199-0.376-0.349-0.527c-0.15-0.151-0.329-0.27-0.526-0.35s-0.408-0.121-0.621-0.118-0.423 0.047-0.618 0.132c-0.195 0.085-0.372 0.208-0.519 0.362v0.003z"></path>
</symbol>
<symbol id="icon-fb" viewBox="0 0 32 32">
<path fill="#000" style="fill: var(--color1, #000)" d="M32 16c0 8.837-7.163 16-16 16s-16-7.163-16-16c0-8.837 7.163-16 16-16s16 7.163 16 16z"></path>
<path fill="#fff" style="fill: var(--color2, #fff)" d="M19.2 9.333h-2c-0.884 0-1.732 0.351-2.357 0.976s-0.976 1.473-0.976 2.357v2h-2v2.667h2v5.333h2.667v-5.333h2l0.667-2.667h-2.667v-2c0-0.177 0.070-0.346 0.195-0.471s0.295-0.195 0.471-0.195h2v-2.667z"></path>
</symbol>
</defs>
</svg>
