<svg xmlns="http://www.w3.org/2000/svg" aria-hidden="true" style="position:absolute;width:0;height:0;overflow:hidden"><defs><symbol id="icon-dots" viewBox="0 0 302 32"><path fill="#06071b" d="M25.705 16.941c0 7.008-5.261 12.689-11.75 12.689s-11.75-5.681-11.75-12.689S7.466 4.252 13.955 4.252s11.75 5.681 11.75 12.689z" style="fill:var(--color1, #06071b)"/><path fill="#939eac" d="M135.368 16.941c0 7.008-5.261 12.689-11.75 12.689s-11.75-5.681-11.75-12.689 5.261-12.689 11.75-12.689 11.75 5.681 11.75 12.689zM245.038 16.941c0 7.008-5.261 12.689-11.75 12.689s-11.75-5.681-11.75-12.689 5.261-12.689 11.75-12.689 11.75 5.681 11.75 12.689zM80.538 16.941c0 7.008-5.261 12.689-11.75 12.689s-11.75-5.681-11.75-12.689 5.261-12.689 11.75-12.689 11.75 5.681 11.75 12.689zM190.205 16.941c0 7.008-5.261 12.689-11.75 12.689s-11.75-5.681-11.75-12.689 5.261-12.689 11.75-12.689 11.75 5.681 11.75 12.689zM299.868 16.941c0 7.008-5.261 12.689-11.75 12.689s-11.75-5.681-11.75-12.689 5.261-12.689 11.75-12.689 11.75 5.681 11.75 12.689z" style="fill:var(--color2, #939eac)"/></symbol><symbol id="icon-burger" viewBox="0 0 52 32"><path fill="none" stroke="#fff" stroke-linecap="round" stroke-width="4" d="M2 2h48M2 16h48M2 30h48" style="stroke:var(--color1, #fff)"/></symbol><symbol id="icon-close" viewBox="0 0 32 32"><path fill="#fff" d="M28.614 1.13 16 13.744 3.386 1.13a1.594 1.594 0 0 0-2.207.049 1.596 1.596 0 0 0-.049 2.207L13.738 16 1.127 28.611a1.6 1.6 0 0 0-.029 2.284 1.579 1.579 0 0 0 1.147.468 1.616 1.616 0 0 0 1.137-.493L16 18.259l12.614 12.614a1.6 1.6 0 0 0 2.207-.049 1.596 1.596 0 0 0 .049-2.207L18.256 16.003 30.87 3.385a1.6 1.6 0 0 0 .029-2.284 1.579 1.579 0 0 0-1.147-.468 1.601 1.601 0 0 0-1.137.494v.003z" style="fill:var(--color1, #fff)"/></symbol><symbol id="icon-vector" viewBox="0 0 24 32"><path fill="#fff" d="M14.088 8.425V0H1.509C.673 0 0 .663 0 1.487V30.23c0 .824.673 1.487 1.509 1.487h21.132c.836 0 1.509-.663 1.509-1.487V9.912h-8.553c-.83 0-1.509-.669-1.509-1.487zm4.808 13.093-6.064 5.928a1.085 1.085 0 0 1-1.512 0l-6.064-5.928c-.638-.624-.191-1.695.708-1.695h4.099v-4.956c0-.548.45-.991 1.006-.991h2.013a.999.999 0 0 1 1.006.991v4.956h4.099c.898 0 1.346 1.071.709 1.695zm4.815-15.014L17.554.433a1.52 1.52 0 0 0-1.069-.434h-.384v7.929h8.05V7.55c0-.39-.157-.768-.44-1.047z" style="fill:var(--color1, #fff)"/></symbol><symbol id="icon-bxs_right-arrow" viewBox="0 0 32 32"><path fill="#fff" d="M7.381 29.181a1.343 1.343 0 0 0 1.378-.085l17.333-12a1.33 1.33 0 0 0 .422-1.715 1.327 1.327 0 0 0-.422-.477l-17.333-12a1.337 1.337 0 0 0-1.377-.084 1.34 1.34 0 0 0-.715 1.181v24a1.333 1.333 0 0 0 .715 1.181z" style="fill:var(--color1, #fff)"/></symbol><symbol id="icon-author" viewBox="0 0 32 32"><path fill="#fff" d="M27.576 25.617A15.067 15.067 0 0 0 13.99 1.054 15.065 15.065 0 0 0 .925 16a14.97 14.97 0 0 0 3.501 9.617l-.022.018c.075.09.162.168.239.257.097.111.201.215.302.323.302.327.612.642.937.937.099.09.201.175.302.261.345.297.699.579 1.066.842.047.032.09.074.138.108v-.013a14.969 14.969 0 0 0 17.23 0v.013c.047-.033.089-.075.138-.108.366-.264.721-.545 1.066-.842.1-.086.202-.171.302-.261.325-.296.635-.609.937-.937.1-.108.204-.212.302-.323.076-.089.164-.167.239-.258l-.024-.017zM16 7.385a4.84 4.84 0 0 1 4.477 2.992 4.845 4.845 0 1 1-9.323 1.854A4.843 4.843 0 0 1 16 7.385zM7.392 25.617a5.381 5.381 0 0 1 5.377-5.31h6.462a5.379 5.379 0 0 1 5.377 5.31 12.861 12.861 0 0 1-17.216 0z" style="fill:var(--color1, #fff)"/></symbol><symbol id="icon-data" viewBox="0 0 32 32"><path fill="#fff" d="M28 26.667V8a2.67 2.67 0 0 0-2.667-2.667h-2.667V2.666h-2.667v2.667h-8V2.666H9.332v2.667H6.665A2.67 2.67 0 0 0 3.998 8v18.667a2.67 2.67 0 0 0 2.667 2.667h18.667a2.67 2.67 0 0 0 2.667-2.667zM12 24H9.333v-2.667H12V24zm0-5.333H9.333V16H12v2.667zM17.333 24h-2.667v-2.667h2.667V24zm0-5.333h-2.667V16h2.667v2.667zM22.667 24H20v-2.667h2.667V24zm0-5.333H20V16h2.667v2.667zM25.333 12H6.666V9.333h18.667V12z" style="fill:var(--color1, #fff)"/></symbol><symbol id="icon-license" viewBox="0 0 32 32"><path fill="#fff" d="M11 18.876V17h2v1.876c0 .164.02.327.06.486l.8 3.196-1.86 1.24-1.86-1.24.8-3.196c.04-.159.06-.322.06-.486z" style="fill:var(--color1, #fff)"/><path fill="#fff" d="M18.586 0H8a4.003 4.003 0 0 0-4 4v24a4.003 4.003 0 0 0 4 4h16a4.003 4.003 0 0 0 4-4V9.414A2 2 0 0 0 27.414 8L20 .586A2 2 0 0 0 18.586 0zM19 7V3l6 6h-4a2 2 0 0 1-2-2zm-8-1V4H9V2h3v2h2v2h-2v2h2v2h-2v2h2v2h-3v-2H9v-2h2V8H9V6h2zm0 9h2a2 2 0 0 1 2 2v1.876l.8 3.198a1.998 1.998 0 0 1-.832 2.148l-1.86 1.24a1.997 1.997 0 0 1-2.218 0l-1.86-1.24a2.005 2.005 0 0 1-.83-2.149l.8-3.198v-1.876a2 2 0 0 1 2-2z" style="fill:var(--color1, #fff)"/></symbol><symbol id="icon-name" viewBox="0 0 32 32"><path fill="#fff" d="M26.706 9.022c.187.188.294.441.294.706V29a1 1 0 0 1-1 1H6a1 1 0 0 1-1-1V3a1 1 0 0 1 1-1h13.272c.266 0 .522.106.709.294l6.725 6.728zm-2.012 1.166-5.881-5.881v5.881h5.881zM10 15.063a.25.25 0 0 0-.25.25v1.5a.25.25 0 0 0 .25.25h12a.25.25 0 0 0 .25-.25v-1.5a.25.25 0 0 0-.25-.25H10zm0 4.249a.25.25 0 0 0-.25.25v1.5a.25.25 0 0 0 .25.25h5.75a.25.25 0 0 0 .25-.25v-1.5a.25.25 0 0 0-.25-.25H10z" style="fill:var(--color1, #fff)"/></symbol><symbol id="icon-size" viewBox="0 0 32 32"><path fill="#fff" d="M29.754 28.067a3.393 3.393 0 0 1-3.388 3.205H5.636a3.392 3.392 0 0 1-3.388-3.205L.929 4.309a3.4 3.4 0 0 1 2.046-3.305c.424-.183.88-.277 1.342-.277h23.371a3.384 3.384 0 0 1 2.465 1.062 3.385 3.385 0 0 1 .923 2.521l-1.32 23.758zm-5.062-17.345c.696-.458.871-1.367.299-1.958-.969-1-2.101-1.826-3.347-2.445a12.938 12.938 0 0 0-5.564-1.347 12.975 12.975 0 0 0-5.609 1.173 12.3 12.3 0 0 0-3.432 2.338c-.591.574-.45 1.487.23 1.967l3.659 2.585c.679.48 1.636.325 2.339-.123a4.898 4.898 0 0 1 2.555-.751l2.879-3.31a.85.85 0 0 1 1.4.178.848.848 0 0 1-.119.935l-2.233 2.567c.302.125.591.281.862.465.687.469 1.638.653 2.333.195l3.749-2.468z" style="fill:var(--color1, #fff)"/></symbol><symbol id="icon-oc" viewBox="0 0 32 32"><path fill="#fff" d="M28.005 2.672h-24a2.674 2.674 0 0 0-2.666 2.666v16a2.674 2.674 0 0 0 2.666 2.666h9.333v2.667h-2.667v2.667h10.667v-2.667h-2.667v-2.667h9.333a2.674 2.674 0 0 0 2.666-2.666v-16a2.674 2.674 0 0 0-2.666-2.666zM14.341 18.227h-.001l-6.333-6.333 1.887-1.884 4.448 4.448 7.78-7.781 1.887 1.887-9.667 9.664z" style="fill:var(--color1, #fff)"/></symbol><symbol id="icon-language" viewBox="0 0 32 32"><path fill="#fff" d="M16 29.333c-1.822 0-3.544-.35-5.167-1.051s-3.039-1.655-4.249-2.867c-1.212-1.211-2.167-2.627-2.867-4.249s-1.051-3.344-1.051-5.167c0-1.844.35-3.572 1.051-5.183s1.655-3.023 2.867-4.233c1.211-1.212 2.627-2.168 4.249-2.868S14.177 2.666 16 2.666c1.844 0 3.572.35 5.183 1.049a13.536 13.536 0 0 1 7.1 7.101c.7 1.611 1.051 3.338 1.051 5.183 0 1.822-.35 3.544-1.051 5.167s-1.655 3.039-2.867 4.249c-1.211 1.212-2.622 2.167-4.233 2.867S17.845 29.333 16 29.333zm0-2.733c.578-.8 1.078-1.633 1.5-2.5s.767-1.789 1.033-2.767h-5.067c.267.978.611 1.9 1.033 2.767s.922 1.7 1.5 2.5zm-3.466-.533c-.4-.733-.75-1.495-1.049-2.284s-.551-1.605-.751-2.449H6.801c.644 1.111 1.45 2.078 2.416 2.9s2.073 1.433 3.317 1.833zm6.933 0c1.244-.4 2.35-1.011 3.316-1.833s1.773-1.789 2.417-2.9h-3.933c-.2.844-.45 1.661-.749 2.449s-.651 1.551-1.051 2.284zm-13.8-7.4H10.2a17.269 17.269 0 0 1-.2-2.666c0-.467.016-.916.049-1.349s.084-.873.151-1.317H5.667a10.52 10.52 0 0 0-.334 2.666 10.693 10.693 0 0 0 .334 2.666zm7.2 0h6.267c.067-.444.117-.884.151-1.317.033-.433.049-.883.049-1.349s-.016-.916-.049-1.349a18.515 18.515 0 0 0-.151-1.317h-6.267a17.996 17.996 0 0 0-.149 4.015c.034.433.083.873.149 1.317zm8.933 0h4.533a10.52 10.52 0 0 0 .334-2.666 10.693 10.693 0 0 0-.334-2.666H21.8a17.996 17.996 0 0 1 .149 4.015c-.033.434-.083.873-.149 1.317zm-.533-8H25.2c-.644-1.111-1.45-2.078-2.417-2.9s-2.072-1.433-3.316-1.833c.4.733.75 1.494 1.051 2.283s.549 1.606.749 2.451zm-7.8 0h5.067c-.267-.978-.611-1.9-1.033-2.767s-.922-1.7-1.5-2.5c-.578.8-1.078 1.633-1.5 2.5s-.767 1.789-1.033 2.767zm-6.667 0h3.933c.2-.844.45-1.661.751-2.451s.649-1.549 1.049-2.283c-1.244.4-2.35 1.011-3.317 1.833s-1.772 1.789-2.416 2.9z" style="fill:var(--color1, #fff)"/></symbol><symbol id="icon-download" viewBox="0 0 32 32"><path fill="#fff" d="M13.5 0h5c.831 0 1.5.669 1.5 1.5V12h5.481c1.112 0 1.669 1.344.881 2.131l-9.506 9.513a1.21 1.21 0 0 1-1.706 0l-9.519-9.513C4.844 13.344 5.4 12 6.512 12H12V1.5c0-.831.669-1.5 1.5-1.5zM32 23.5v7c0 .831-.669 1.5-1.5 1.5h-29C.669 32 0 31.331 0 30.5v-7c0-.831.669-1.5 1.5-1.5h9.169l3.062 3.063a3.204 3.204 0 0 0 4.538 0L21.331 22H30.5c.831 0 1.5.669 1.5 1.5zM24.25 29c0-.688-.563-1.25-1.25-1.25s-1.25.563-1.25 1.25c0 .688.563 1.25 1.25 1.25s1.25-.563 1.25-1.25zm4 0c0-.688-.563-1.25-1.25-1.25s-1.25.563-1.25 1.25c0 .688.563 1.25 1.25 1.25s1.25-.563 1.25-1.25z" style="fill:var(--color1, #fff)"/></symbol></defs></svg>