<svg aria-hidden="true" style="position: absolute; width: 0; height: 0; overflow: hidden;" version="1.1" xmlns="http://www.w3.org/2000/svg" xmlns:xlink="http://www.w3.org/1999/xlink">
<defs>
<symbol id="icon-dots" viewBox="0 0 302 32">
<path fill="#06071b" style="fill: var(--color1, #06071b)" d="M25.705 16.941c0 7.008-5.261 12.689-11.75 12.689s-11.75-5.681-11.75-12.689c0-7.008 5.261-12.689 11.75-12.689s11.75 5.681 11.75 12.689z"></path>
<path fill="#939eac" style="fill: var(--color2, #939eac)" d="M135.368 16.941c0 7.008-5.261 12.689-11.75 12.689s-11.75-5.681-11.75-12.689c0-7.008 5.261-12.689 11.75-12.689s11.75 5.681 11.75 12.689z"></path>
<path fill="#939eac" style="fill: var(--color2, #939eac)" d="M245.038 16.941c0 7.008-5.261 12.689-11.75 12.689s-11.75-5.681-11.75-12.689c0-7.008 5.261-12.689 11.75-12.689s11.75 5.681 11.75 12.689z"></path>
<path fill="#939eac" style="fill: var(--color2, #939eac)" d="M80.538 16.941c0 7.008-5.261 12.689-11.75 12.689s-11.75-5.681-11.75-12.689c0-7.008 5.261-12.689 11.75-12.689s11.75 5.681 11.75 12.689z"></path>
<path fill="#939eac" style="fill: var(--color2, #939eac)" d="M190.205 16.941c0 7.008-5.261 12.689-11.75 12.689s-11.75-5.681-11.75-12.689c0-7.008 5.261-12.689 11.75-12.689s11.75 5.681 11.75 12.689z"></path>
<path fill="#939eac" style="fill: var(--color2, #939eac)" d="M299.868 16.941c0 7.008-5.261 12.689-11.75 12.689s-11.75-5.681-11.75-12.689c0-7.008 5.261-12.689 11.75-12.689s11.75 5.681 11.75 12.689z"></path>
</symbol>
<symbol id="icon-burger" viewBox="0 0 52 32">
<path fill="none" stroke="#fff" style="stroke: var(--color1, #fff)" stroke-linejoin="miter" stroke-linecap="round" stroke-miterlimit="4" stroke-width="4" d="M2 2h48"></path>
<path fill="none" stroke="#fff" style="stroke: var(--color1, #fff)" stroke-linejoin="miter" stroke-linecap="round" stroke-miterlimit="4" stroke-width="4" d="M2 16h48"></path>
<path fill="none" stroke="#fff" style="stroke: var(--color1, #fff)" stroke-linejoin="miter" stroke-linecap="round" stroke-miterlimit="4" stroke-width="4" d="M2 30h48"></path>
</symbol>
<symbol id="icon-close" viewBox="0 0 32 32">
<path fill="#fff" style="fill: var(--color1, #fff)" d="M28.614 1.13l-12.614 12.614-12.614-12.614c-0.303-0.278-0.702-0.427-1.113-0.418s-0.803 0.176-1.094 0.467c-0.291 0.291-0.458 0.683-0.467 1.094s0.141 0.81 0.418 1.113l12.608 12.614-12.611 12.611c-0.154 0.147-0.277 0.323-0.362 0.518s-0.13 0.405-0.133 0.618 0.037 0.424 0.117 0.621c0.080 0.197 0.199 0.376 0.349 0.527s0.329 0.27 0.526 0.35 0.408 0.121 0.621 0.118c0.213-0.002 0.423-0.047 0.618-0.132s0.372-0.208 0.519-0.361l12.618-12.611 12.614 12.614c0.303 0.278 0.702 0.428 1.113 0.418s0.803-0.176 1.094-0.467c0.291-0.291 0.458-0.683 0.467-1.094s-0.141-0.81-0.418-1.113l-12.614-12.614 12.614-12.618c0.154-0.147 0.277-0.323 0.362-0.518s0.13-0.405 0.133-0.618c0.003-0.213-0.037-0.424-0.117-0.621s-0.199-0.376-0.349-0.527c-0.15-0.151-0.329-0.27-0.526-0.35s-0.408-0.121-0.621-0.118-0.423 0.047-0.618 0.132c-0.195 0.085-0.372 0.208-0.519 0.362v0.003z"></path>
</symbol>

<symbol id="icon-vector" viewBox="0 0 24 32">
<path fill="#fff" style="fill: var(--color1, #fff)" d="M14.088 8.425v-8.425h-12.579c-0.836 0-1.509 0.663-1.509 1.487v28.743c0 0.824 0.673 1.487 1.509 1.487h21.132c0.836 0 1.509-0.663 1.509-1.487v-20.318h-8.553c-0.83 0-1.509-0.669-1.509-1.487zM18.896 21.518l-6.064 5.928c-0.418 0.409-1.094 0.409-1.512 0l-6.064-5.928c-0.638-0.624-0.191-1.695 0.708-1.695h4.099v-4.956c0-0.548 0.45-0.991 1.006-0.991h2.013c0.556 0 1.006 0.444 1.006 0.991v4.956h4.099c0.898 0 1.346 1.071 0.709 1.695zM23.711 6.504l-6.157-6.071c-0.283-0.279-0.667-0.434-1.069-0.434h-0.384v7.929h8.050v-0.378c0-0.39-0.157-0.768-0.44-1.047z"></path>
</symbol>
<symbol id="icon-bxs_right-arrow" viewBox="0 0 32 32">
<path fill="#fff" style="fill: var(--color1, #fff)" d="M7.381 29.181c0.216 0.112 0.458 0.164 0.701 0.149s0.477-0.096 0.677-0.234l17.333-12c0.177-0.123 0.322-0.287 0.422-0.477s0.152-0.403 0.152-0.619-0.052-0.428-0.152-0.619c-0.1-0.191-0.245-0.355-0.422-0.477l-17.333-12c-0.2-0.138-0.434-0.219-0.677-0.234s-0.485 0.037-0.7 0.15c-0.215 0.113-0.396 0.283-0.522 0.491s-0.193 0.447-0.193 0.69v24c-0 0.243 0.067 0.482 0.193 0.69s0.307 0.378 0.522 0.491z"></path>
</symbol>
</defs>
</svg>
