<svg aria-hidden="true" style="position: absolute; width: 0; height: 0; overflow: hidden;" version="1.1" xmlns="http://www.w3.org/2000/svg" xmlns:xlink="http://www.w3.org/1999/xlink">
<defs>
<symbol id="icon-author" viewBox="0 0 32 32">
<path fill="#fff" style="fill: var(--color1, #fff)" d="M27.576 25.617c1.547-1.861 2.622-4.067 3.136-6.431s0.45-4.818-0.184-7.153c-0.635-2.335-1.823-4.482-3.463-6.261s-3.685-3.136-5.961-3.957c-2.276-0.821-4.716-1.082-7.114-0.761s-4.684 1.216-6.663 2.607-3.595 3.239-4.709 5.387c-1.114 2.148-1.695 4.532-1.693 6.952 0.001 3.517 1.24 6.922 3.501 9.617l-0.022 0.018c0.075 0.090 0.162 0.168 0.239 0.257 0.097 0.111 0.201 0.215 0.302 0.323 0.302 0.327 0.612 0.642 0.937 0.937 0.099 0.090 0.201 0.175 0.302 0.261 0.345 0.297 0.699 0.579 1.066 0.842 0.047 0.032 0.090 0.074 0.138 0.108v-0.013c2.522 1.775 5.531 2.728 8.615 2.728s6.093-0.953 8.615-2.728v0.013c0.047-0.033 0.089-0.075 0.138-0.108 0.366-0.264 0.721-0.545 1.066-0.842 0.1-0.086 0.202-0.171 0.302-0.261 0.325-0.296 0.635-0.609 0.937-0.937 0.1-0.108 0.204-0.212 0.302-0.323 0.076-0.089 0.164-0.167 0.239-0.258l-0.024-0.017zM16 7.385c0.959 0 1.895 0.284 2.692 0.817s1.418 1.289 1.785 2.175 0.463 1.86 0.276 2.8c-0.187 0.94-0.648 1.804-1.326 2.481s-1.541 1.139-2.481 1.326c-0.94 0.187-1.914 0.091-2.8-0.276s-1.642-0.988-2.175-1.785c-0.533-0.797-0.817-1.734-0.817-2.692 0-1.285 0.511-2.518 1.419-3.427s2.141-1.419 3.427-1.419zM7.392 25.617c0.019-1.414 0.593-2.764 1.6-3.758s2.363-1.551 3.777-1.552h6.462c1.414 0.001 2.771 0.558 3.777 1.552s1.581 2.343 1.6 3.758c-2.362 2.128-5.429 3.306-8.608 3.306s-6.246-1.178-8.608-3.306z"></path>
</symbol>
<symbol id="icon-data" viewBox="0 0 32 32">
<path fill="#fff" style="fill: var(--color1, #fff)" d="M28 26.667v-18.667c0-1.471-1.196-2.667-2.667-2.667h-2.667v-2.667h-2.667v2.667h-8v-2.667h-2.667v2.667h-2.667c-1.471 0-2.667 1.196-2.667 2.667v18.667c0 1.471 1.196 2.667 2.667 2.667h18.667c1.471 0 2.667-1.196 2.667-2.667zM12 24h-2.667v-2.667h2.667v2.667zM12 18.667h-2.667v-2.667h2.667v2.667zM17.333 24h-2.667v-2.667h2.667v2.667zM17.333 18.667h-2.667v-2.667h2.667v2.667zM22.667 24h-2.667v-2.667h2.667v2.667zM22.667 18.667h-2.667v-2.667h2.667v2.667zM25.333 12h-18.667v-2.667h18.667v2.667z"></path>
</symbol>
<symbol id="icon-license" viewBox="0 0 32 32">
<path fill="#fff" style="fill: var(--color1, #fff)" d="M11 18.876v-1.876h2v1.876c0 0.164 0.020 0.327 0.060 0.486l0.8 3.196-1.86 1.24-1.86-1.24 0.8-3.196c0.040-0.159 0.060-0.322 0.060-0.486z"></path>
<path fill="#fff" style="fill: var(--color1, #fff)" d="M18.586 0h-10.586c-1.061 0-2.078 0.421-2.828 1.172s-1.172 1.768-1.172 2.828v24c0 1.061 0.421 2.078 1.172 2.828s1.768 1.172 2.828 1.172h16c1.061 0 2.078-0.421 2.828-1.172s1.172-1.768 1.172-2.828v-18.586c-0-0.53-0.211-1.039-0.586-1.414l-7.414-7.414c-0.375-0.375-0.884-0.586-1.414-0.586v0zM19 7v-4l6 6h-4c-0.53 0-1.039-0.211-1.414-0.586s-0.586-0.884-0.586-1.414zM11 6v-2h-2v-2h3v2h2v2h-2v2h2v2h-2v2h2v2h-3v-2h-2v-2h2v-2h-2v-2h2zM11 15h2c0.53 0 1.039 0.211 1.414 0.586s0.586 0.884 0.586 1.414v1.876l0.8 3.198c0.1 0.4 0.073 0.821-0.076 1.206s-0.413 0.714-0.756 0.942l-1.86 1.24c-0.328 0.219-0.714 0.336-1.109 0.336s-0.78-0.117-1.109-0.336l-1.86-1.24c-0.343-0.229-0.607-0.558-0.755-0.943s-0.175-0.805-0.075-1.206l0.8-3.198v-1.876c0-0.53 0.211-1.039 0.586-1.414s0.884-0.586 1.414-0.586z"></path>
</symbol>
<symbol id="icon-name" viewBox="0 0 32 32">
<path fill="#fff" style="fill: var(--color1, #fff)" d="M26.706 9.022c0.187 0.188 0.294 0.441 0.294 0.706v19.272c0 0.553-0.447 1-1 1h-20c-0.553 0-1-0.447-1-1v-26c0-0.553 0.447-1 1-1h13.272c0.266 0 0.522 0.106 0.709 0.294l6.725 6.728zM24.694 10.188l-5.881-5.881v5.881h5.881zM10 15.063c-0.066 0-0.13 0.026-0.177 0.073s-0.073 0.11-0.073 0.177v1.5c0 0.066 0.026 0.13 0.073 0.177s0.11 0.073 0.177 0.073h12c0.066 0 0.13-0.026 0.177-0.073s0.073-0.11 0.073-0.177v-1.5c0-0.066-0.026-0.13-0.073-0.177s-0.11-0.073-0.177-0.073h-12zM10 19.312c-0.066 0-0.13 0.026-0.177 0.073s-0.073 0.11-0.073 0.177v1.5c0 0.066 0.026 0.13 0.073 0.177s0.11 0.073 0.177 0.073h5.75c0.066 0 0.13-0.026 0.177-0.073s0.073-0.11 0.073-0.177v-1.5c0-0.066-0.026-0.13-0.073-0.177s-0.11-0.073-0.177-0.073h-5.75z"></path>
</symbol>
<symbol id="icon-size" viewBox="0 0 32 32">
<path fill="#fff" style="fill: var(--color1, #fff)" d="M29.754 28.067c-0.048 0.866-0.426 1.681-1.056 2.277s-1.465 0.928-2.332 0.928h-20.73c-0.868 0-1.702-0.332-2.332-0.928s-1.008-1.411-1.056-2.277l-1.319-23.758c-0.026-0.461 0.043-0.922 0.202-1.355s0.404-0.83 0.721-1.165c0.317-0.335 0.699-0.602 1.123-0.785s0.88-0.277 1.342-0.277h23.371c0.462-0 0.918 0.094 1.342 0.277s0.806 0.45 1.123 0.785 0.563 0.732 0.721 1.165c0.159 0.433 0.227 0.895 0.202 1.356l-1.32 23.758zM24.692 10.722c0.696-0.458 0.871-1.367 0.299-1.958-0.969-1-2.101-1.826-3.347-2.445-1.731-0.859-3.632-1.319-5.564-1.347-1.934-0.032-3.85 0.369-5.609 1.173-1.268 0.579-2.429 1.37-3.432 2.338-0.591 0.574-0.45 1.487 0.23 1.967l3.659 2.585c0.679 0.48 1.636 0.325 2.339-0.123 0.181-0.115 0.371-0.218 0.566-0.307 0.625-0.286 1.302-0.437 1.989-0.444l2.879-3.31c0.148-0.17 0.357-0.274 0.581-0.29 0.111-0.008 0.223 0.006 0.328 0.042s0.203 0.091 0.288 0.164c0.084 0.073 0.153 0.162 0.203 0.262s0.079 0.208 0.087 0.319c0.008 0.111-0.006 0.223-0.042 0.328s-0.091 0.203-0.164 0.288l-2.233 2.567c0.302 0.125 0.591 0.281 0.862 0.465 0.687 0.469 1.638 0.653 2.333 0.195l3.749-2.468z"></path>
</symbol>
<symbol id="icon-oc" viewBox="0 0 32 32">
<path fill="#fff" style="fill: var(--color1, #fff)" d="M28.005 2.672h-24c-0.707 0.002-1.384 0.284-1.883 0.783s-0.781 1.177-0.783 1.883v16c0.002 0.707 0.284 1.384 0.783 1.883s1.177 0.781 1.883 0.783h9.333v2.667h-2.667v2.667h10.667v-2.667h-2.667v-2.667h9.333c0.707-0.002 1.384-0.284 1.883-0.783s0.781-1.177 0.783-1.883v-16c-0.002-0.707-0.284-1.384-0.783-1.883s-1.177-0.781-1.883-0.783zM14.341 18.227h-0.001l-6.333-6.333 1.887-1.884 4.448 4.448 7.78-7.781 1.887 1.887-9.667 9.664z"></path>
</symbol>
<symbol id="icon-language" viewBox="0 0 32 32">
<path fill="#fff" style="fill: var(--color1, #fff)" d="M16 29.333c-1.822 0-3.544-0.35-5.167-1.051s-3.039-1.655-4.249-2.867c-1.212-1.211-2.167-2.627-2.867-4.249s-1.051-3.344-1.051-5.167c0-1.844 0.35-3.572 1.051-5.183s1.655-3.023 2.867-4.233c1.211-1.212 2.627-2.168 4.249-2.868s3.344-1.049 5.167-1.049c1.844 0 3.572 0.35 5.183 1.049s3.023 1.656 4.233 2.868c1.212 1.211 2.167 2.622 2.867 4.233s1.051 3.338 1.051 5.183c0 1.822-0.35 3.544-1.051 5.167s-1.655 3.039-2.867 4.249c-1.211 1.212-2.622 2.167-4.233 2.867s-3.338 1.051-5.183 1.051zM16 26.6c0.578-0.8 1.078-1.633 1.5-2.5s0.767-1.789 1.033-2.767h-5.067c0.267 0.978 0.611 1.9 1.033 2.767s0.922 1.7 1.5 2.5zM12.534 26.067c-0.4-0.733-0.75-1.495-1.049-2.284s-0.551-1.605-0.751-2.449h-3.933c0.644 1.111 1.45 2.078 2.416 2.9s2.073 1.433 3.317 1.833zM19.467 26.067c1.244-0.4 2.35-1.011 3.316-1.833s1.773-1.789 2.417-2.9h-3.933c-0.2 0.844-0.45 1.661-0.749 2.449s-0.651 1.551-1.051 2.284zM5.667 18.667h4.533c-0.067-0.444-0.117-0.884-0.151-1.317s-0.049-0.883-0.049-1.349c0-0.467 0.016-0.916 0.049-1.349s0.084-0.873 0.151-1.317h-4.533c-0.111 0.444-0.195 0.884-0.251 1.317s-0.083 0.883-0.083 1.349c0 0.467 0.028 0.916 0.083 1.349s0.14 0.873 0.251 1.317zM12.867 18.667h6.267c0.067-0.444 0.117-0.884 0.151-1.317 0.033-0.433 0.049-0.883 0.049-1.349s-0.016-0.916-0.049-1.349c-0.034-0.434-0.084-0.873-0.151-1.317h-6.267c-0.067 0.444-0.116 0.884-0.149 1.317s-0.051 0.883-0.051 1.349c0 0.467 0.017 0.916 0.051 1.349s0.083 0.873 0.149 1.317zM21.8 18.667h4.533c0.111-0.444 0.195-0.884 0.251-1.317s0.083-0.883 0.083-1.349c0-0.467-0.028-0.916-0.083-1.349s-0.14-0.873-0.251-1.317h-4.533c0.067 0.444 0.116 0.884 0.149 1.317 0.034 0.433 0.051 0.883 0.051 1.349s-0.017 0.916-0.051 1.349c-0.033 0.434-0.083 0.873-0.149 1.317zM21.267 10.667h3.933c-0.644-1.111-1.45-2.078-2.417-2.9s-2.072-1.433-3.316-1.833c0.4 0.733 0.75 1.494 1.051 2.283s0.549 1.606 0.749 2.451zM13.467 10.667h5.067c-0.267-0.978-0.611-1.9-1.033-2.767s-0.922-1.7-1.5-2.5c-0.578 0.8-1.078 1.633-1.5 2.5s-0.767 1.789-1.033 2.767zM6.8 10.667h3.933c0.2-0.844 0.45-1.661 0.751-2.451s0.649-1.549 1.049-2.283c-1.244 0.4-2.35 1.011-3.317 1.833s-1.772 1.789-2.416 2.9z"></path>
</symbol>
<symbol id="icon-download" viewBox="0 0 32 32">
<path fill="#fff" style="fill: var(--color1, #fff)" d="M13.5 0h5c0.831 0 1.5 0.669 1.5 1.5v10.5h5.481c1.112 0 1.669 1.344 0.881 2.131l-9.506 9.513c-0.469 0.469-1.238 0.469-1.706 0l-9.519-9.513c-0.787-0.787-0.231-2.131 0.881-2.131h5.488v-10.5c0-0.831 0.669-1.5 1.5-1.5zM32 23.5v7c0 0.831-0.669 1.5-1.5 1.5h-29c-0.831 0-1.5-0.669-1.5-1.5v-7c0-0.831 0.669-1.5 1.5-1.5h9.169l3.062 3.063c1.256 1.256 3.281 1.256 4.538 0l3.062-3.063h9.169c0.831 0 1.5 0.669 1.5 1.5zM24.25 29c0-0.688-0.563-1.25-1.25-1.25s-1.25 0.563-1.25 1.25c0 0.688 0.563 1.25 1.25 1.25s1.25-0.563 1.25-1.25zM28.25 29c0-0.688-0.563-1.25-1.25-1.25s-1.25 0.563-1.25 1.25c0 0.688 0.563 1.25 1.25 1.25s1.25-0.563 1.25-1.25z"></path>
</symbol>
</defs>
</svg>
